<?xml version="1.0" encoding="UTF-8" ?>
<!DOCTYPE svg PUBLIC "-//W3C//DTD SVG 1.1//EN" "http://www.w3.org/Graphics/SVG/1.1/DTD/svg11.dtd">
<svg width="772pt" height="250pt" viewBox="0 0 772 250" version="1.1" xmlns="http://www.w3.org/2000/svg">
<g id="#f1f1f1ff">
<path fill="#f1f1f1" opacity="1.00" d=" M 0.00 0.00 L 772.00 0.00 L 772.00 250.00 L 0.00 250.00 L 0.00 0.00 M 79.11 50.26 C 78.01 55.73 72.95 59.09 71.25 64.30 C 67.67 72.38 69.41 81.71 65.75 89.74 C 64.65 92.44 61.79 94.71 62.34 97.86 C 63.85 101.40 68.25 101.90 71.57 102.45 C 69.98 106.17 68.86 110.06 67.29 113.79 C 63.57 113.79 59.85 113.76 56.13 113.81 C 50.06 107.93 44.15 101.88 38.16 95.91 C 36.25 93.92 34.04 91.45 30.93 92.18 C 26.29 93.08 21.76 99.25 25.39 103.55 C 32.17 110.47 39.08 117.26 45.92 124.11 C 47.08 125.04 46.43 126.72 46.60 127.99 C 46.49 150.68 46.72 173.39 46.48 196.08 C 41.65 196.43 36.80 197.49 32.40 199.54 C 31.07 200.11 29.43 201.67 30.84 203.06 C 34.64 205.90 39.58 206.51 44.11 207.46 C 46.94 207.82 49.83 209.04 52.67 208.17 L 52.68 208.17 C 54.57 209.33 56.85 209.19 58.97 209.46 C 74.56 211.31 90.29 211.68 105.98 211.88 C 126.09 211.90 146.27 211.62 166.26 209.18 C 167.29 209.07 168.26 208.76 169.18 208.27 L 169.27 208.18 C 173.12 209.27 177.08 207.38 180.95 206.98 C 184.97 205.90 189.96 205.52 192.61 201.92 C 188.63 196.67 181.03 197.50 175.39 195.36 C 175.23 171.63 175.38 147.90 175.31 124.17 C 181.81 116.79 189.38 110.24 196.02 102.94 C 199.59 97.15 190.82 88.94 185.44 93.40 C 178.41 100.05 171.80 107.14 164.79 113.81 C 160.74 113.75 156.69 113.79 152.65 113.78 C 151.19 110.02 150.02 106.16 148.42 102.47 C 151.68 101.85 155.74 101.31 157.37 97.96 C 157.92 95.41 155.86 93.45 154.78 91.36 C 149.95 83.55 152.51 73.68 148.46 65.59 C 146.49 59.95 141.72 55.75 140.38 49.84 C 138.59 45.86 137.07 39.80 131.97 39.21 C 127.31 39.95 124.43 44.34 121.98 47.98 C 113.99 47.04 105.88 46.65 97.92 48.04 C 95.04 44.50 92.28 39.39 87.13 39.23 C 82.32 40.48 80.87 46.22 79.11 50.26 M 232.00 104.00 C 231.90 127.36 231.97 150.73 231.96 174.09 C 233.31 174.10 234.65 174.09 236.00 174.07 C 238.01 173.88 240.03 173.74 242.06 173.73 C 402.95 173.66 563.84 173.83 724.74 173.63 C 724.90 150.45 724.77 127.26 724.82 104.08 C 703.88 103.84 682.93 104.08 661.99 103.99 C 519.99 104.03 377.99 103.97 236.00 104.01 C 234.66 104.00 233.33 104.00 232.00 104.00 Z" />
</g>
<g id="#005446ff">
<path fill="#005446" opacity="1.00" d=" M 79.11 50.26 C 80.87 46.22 82.32 40.48 87.13 39.23 C 92.28 39.39 95.04 44.50 97.92 48.04 C 105.88 46.65 113.99 47.04 121.98 47.98 C 124.43 44.34 127.31 39.95 131.97 39.21 C 137.07 39.80 138.59 45.86 140.38 49.84 C 141.72 55.75 146.49 59.95 148.46 65.59 C 152.51 73.68 149.95 83.55 154.78 91.36 C 155.86 93.45 157.92 95.41 157.37 97.96 C 155.74 101.31 151.68 101.85 148.42 102.47 C 147.50 102.49 146.57 102.45 145.65 102.44 C 145.28 102.05 144.53 101.26 144.16 100.87 C 143.13 96.83 141.80 92.86 141.05 88.75 C 140.75 87.26 140.32 85.80 139.85 84.35 C 136.13 84.12 132.40 84.13 128.68 84.26 C 126.46 84.20 124.24 84.21 122.03 84.35 C 121.88 84.69 121.59 85.36 121.45 85.70 C 121.28 85.38 120.95 84.76 120.79 84.45 C 119.34 84.44 117.88 84.42 116.43 84.40 C 111.57 84.23 106.70 84.16 101.84 84.41 C 100.35 84.45 98.86 84.43 97.38 84.38 C 94.57 84.26 91.76 84.24 88.95 84.21 C 87.50 84.18 86.04 84.17 84.59 84.17 C 82.90 84.18 81.22 84.34 79.54 84.50 C 79.28 85.90 79.01 87.31 78.79 88.72 C 78.48 91.42 77.68 94.02 76.91 96.62 C 76.19 98.63 75.28 100.57 74.40 102.51 C 73.45 102.50 72.51 102.51 71.57 102.45 C 68.25 101.90 63.85 101.40 62.34 97.86 C 61.79 94.71 64.65 92.44 65.75 89.74 C 69.41 81.71 67.67 72.38 71.25 64.30 C 72.95 59.09 78.01 55.73 79.11 50.26 M 85.36 44.15 L 85.72 44.62 C 83.58 53.93 76.22 60.80 73.81 69.95 C 72.05 78.45 70.80 87.28 66.52 94.98 C 66.65 95.62 66.89 96.90 67.02 97.54 C 68.63 97.78 70.24 98.11 71.87 97.95 C 73.48 92.71 74.45 87.29 76.12 82.08 C 76.68 79.65 79.70 80.40 81.51 79.81 C 81.90 80.02 82.67 80.44 83.05 80.65 C 100.03 81.73 117.08 81.76 134.07 80.85 C 135.58 80.56 137.64 81.31 138.63 79.74 C 140.37 80.25 143.05 80.06 143.60 82.27 C 145.40 87.45 146.27 92.90 148.06 98.08 C 149.33 97.99 150.60 97.83 151.86 97.62 C 153.85 96.16 152.25 94.00 151.52 92.38 C 148.19 85.73 147.49 78.26 145.78 71.13 C 143.94 63.74 138.72 57.92 135.94 50.94 C 134.99 48.80 134.52 46.47 133.43 44.38 L 133.44 44.09 C 132.63 43.71 131.57 43.03 130.77 43.81 C 127.75 45.98 126.20 49.46 123.97 52.32 C 118.64 51.97 113.35 51.05 107.98 51.17 C 106.56 51.41 104.52 50.73 103.66 52.28 C 103.10 52.33 102.00 52.42 101.44 52.47 C 99.56 52.12 97.62 52.67 95.77 52.27 C 93.29 49.70 92.16 45.91 89.01 43.95 C 87.90 42.94 86.55 43.89 85.36 44.15 Z" />
</g>
<g id="#007c57ff">
<path fill="#007c57" opacity="1.00" d=" M 85.36 44.15 C 86.55 43.89 87.90 42.94 89.01 43.95 C 92.16 45.91 93.29 49.70 95.77 52.27 C 97.62 52.67 99.56 52.12 101.44 52.47 C 96.75 53.90 91.60 55.56 88.64 59.76 C 86.72 62.33 86.46 66.69 89.43 68.62 C 92.83 70.87 97.10 70.95 101.03 71.23 C 107.37 71.36 113.74 71.55 120.04 70.79 C 123.15 70.34 126.79 69.51 128.37 66.47 C 129.78 62.99 127.60 59.22 124.83 57.13 C 118.86 52.49 110.95 51.76 103.66 52.28 C 104.52 50.73 106.56 51.41 107.98 51.17 C 113.35 51.05 118.64 51.97 123.97 52.32 C 126.20 49.46 127.75 45.98 130.77 43.81 C 131.57 43.03 132.63 43.71 133.44 44.09 L 133.43 44.38 C 133.50 53.26 140.24 60.26 142.53 68.59 C 145.25 78.32 145.16 89.43 151.86 97.62 C 150.60 97.83 149.33 97.99 148.06 98.08 C 146.27 92.90 145.40 87.45 143.60 82.27 C 143.05 80.06 140.37 80.25 138.63 79.74 C 126.82 78.37 114.87 78.62 103.00 78.66 C 95.83 78.90 88.61 78.66 81.51 79.81 C 79.70 80.40 76.68 79.65 76.12 82.08 C 74.45 87.29 73.48 92.71 71.87 97.95 C 70.24 98.11 68.63 97.78 67.02 97.54 C 70.18 95.55 70.95 91.60 72.30 88.38 C 75.60 79.64 74.80 69.74 79.42 61.45 C 82.21 56.39 84.86 51.21 86.47 45.63 C 86.28 45.38 85.91 44.87 85.72 44.62 L 85.36 44.15 Z" />
</g>
<g id="#57ab79ff">
<path fill="#57ab79" opacity="1.00" d=" M 85.72 44.62 C 85.91 44.87 86.28 45.38 86.47 45.63 C 84.86 51.21 82.21 56.39 79.42 61.45 C 74.80 69.74 75.60 79.64 72.30 88.38 C 70.95 91.60 70.18 95.55 67.02 97.54 C 66.89 96.90 66.65 95.62 66.52 94.98 C 70.80 87.28 72.05 78.45 73.81 69.95 C 76.22 60.80 83.58 53.93 85.72 44.62 Z" />
</g>
<g id="#59ab79ff">
<path fill="#59ab79" opacity="1.00" d=" M 142.53 68.59 C 140.24 60.26 133.50 53.26 133.43 44.38 C 134.52 46.47 134.99 48.80 135.94 50.94 C 138.72 57.92 143.94 63.74 145.78 71.13 C 147.49 78.26 148.19 85.73 151.52 92.38 C 152.25 94.00 153.85 96.16 151.86 97.62 C 145.16 89.43 145.25 78.32 142.53 68.59 Z" />
</g>
<g id="#4da374ff">
<path fill="#4da374" opacity="1.00" d=" M 101.44 52.47 C 102.00 52.42 103.10 52.33 103.66 52.28 C 110.95 51.76 118.86 52.49 124.83 57.13 C 127.60 59.22 129.78 62.99 128.37 66.47 C 126.79 69.51 123.15 70.34 120.04 70.79 C 113.74 71.55 107.37 71.36 101.03 71.23 C 97.10 70.95 92.83 70.87 89.43 68.62 C 86.46 66.69 86.72 62.33 88.64 59.76 C 91.60 55.56 96.75 53.90 101.44 52.47 Z" />
</g>
<g id="#4aa173ff">
<path fill="#4aa173" opacity="1.00" d=" M 81.51 79.81 C 88.61 78.66 95.83 78.90 103.00 78.66 C 114.87 78.62 126.82 78.37 138.63 79.74 C 137.64 81.31 135.58 80.56 134.07 80.85 C 117.08 81.76 100.03 81.73 83.05 80.65 C 82.67 80.44 81.90 80.02 81.51 79.81 Z" />
</g>
<g id="#435169ff">
<path fill="#435169" opacity="1.00" d=" M 79.54 84.50 C 81.22 84.34 82.90 84.18 84.59 84.17 C 84.59 85.86 84.98 87.53 85.90 88.97 C 88.24 92.54 93.22 94.27 97.11 92.23 C 100.15 90.87 101.76 87.62 101.84 84.41 C 106.70 84.16 111.57 84.23 116.43 84.40 C 116.28 90.07 122.58 94.60 127.89 92.65 C 131.44 91.66 133.44 88.08 133.76 84.61 C 132.39 84.54 131.01 84.45 129.64 84.34 L 128.68 84.26 C 132.40 84.13 136.13 84.12 139.85 84.35 C 140.32 85.80 140.75 87.26 141.05 88.75 C 139.37 88.69 137.69 88.65 136.01 88.62 C 133.59 92.40 129.96 96.21 125.04 95.75 C 120.21 95.94 116.66 92.26 114.06 88.66 C 110.73 88.57 107.40 88.55 104.08 88.73 C 101.74 92.66 97.89 96.29 92.96 95.74 C 88.09 95.91 84.79 92.01 82.08 88.53 C 81.26 88.58 79.61 88.67 78.79 88.72 C 79.01 87.31 79.28 85.90 79.54 84.50 Z" />
</g>
<g id="#b3afa2ff">
<path fill="#b3afa2" opacity="1.00" d=" M 84.59 84.17 C 86.04 84.17 87.50 84.18 88.95 84.21 C 89.15 84.80 89.54 85.99 89.74 86.58 C 88.18 86.01 86.50 86.27 84.89 86.27 C 85.14 86.94 85.65 88.29 85.90 88.97 C 84.98 87.53 84.59 85.86 84.59 84.17 Z" />
</g>
<g id="#000000ff">
<path fill="#000000" opacity="1.00" d=" M 88.95 84.21 C 91.76 84.24 94.57 84.26 97.38 84.38 C 97.00 87.99 91.95 89.86 89.74 86.58 C 89.54 85.99 89.15 84.80 88.95 84.21 Z" />
<path fill="#000000" opacity="1.00" d=" M 122.03 84.35 C 124.24 84.21 126.46 84.20 128.68 84.26 L 129.64 84.34 C 129.17 88.52 123.04 89.91 121.45 85.70 C 121.59 85.36 121.88 84.69 122.03 84.35 Z" />
</g>
<g id="#ffffffff">
<path fill="#ffffff" opacity="1.00" d=" M 97.38 84.38 C 98.86 84.43 100.35 84.45 101.84 84.41 C 101.76 87.62 100.15 90.87 97.11 92.23 C 93.22 94.27 88.24 92.54 85.90 88.97 C 85.65 88.29 85.14 86.94 84.89 86.27 C 86.50 86.27 88.18 86.01 89.74 86.58 C 91.95 89.86 97.00 87.99 97.38 84.38 Z" />
<path fill="#ffffff" opacity="1.00" d=" M 116.43 84.40 C 117.88 84.42 119.34 84.44 120.79 84.45 C 120.95 84.76 121.28 85.38 121.45 85.70 C 123.04 89.91 129.17 88.52 129.64 84.34 C 131.01 84.45 132.39 84.54 133.76 84.61 C 133.44 88.08 131.44 91.66 127.89 92.65 C 122.58 94.60 116.28 90.07 116.43 84.40 Z" />
<path fill="#ffffff" opacity="1.00" d=" M 236.00 104.01 C 377.99 103.97 519.99 104.03 661.99 103.99 C 682.93 104.08 703.88 103.84 724.82 104.08 C 724.77 127.26 724.90 150.45 724.74 173.63 C 563.84 173.83 402.95 173.66 242.06 173.73 C 240.03 173.74 238.01 173.88 236.00 174.07 C 236.00 150.72 236.00 127.36 236.00 104.01 M 702.23 117.15 C 697.39 119.11 697.36 126.85 702.20 128.84 C 706.21 131.10 711.83 127.58 711.52 122.98 C 711.80 118.41 706.22 114.93 702.23 117.15 M 295.82 125.01 C 295.81 126.88 295.81 128.75 295.81 130.63 C 297.53 130.63 299.26 130.63 300.99 130.63 C 301.00 128.75 301.00 126.88 301.00 125.00 C 299.27 125.00 297.54 125.00 295.82 125.01 M 325.82 125.01 C 325.87 129.97 325.68 134.95 325.96 139.91 C 323.95 136.48 320.05 134.12 316.01 134.60 C 309.55 135.00 305.24 141.84 305.65 147.92 C 305.60 154.42 311.20 160.92 317.98 160.41 C 321.46 160.40 324.26 158.19 326.57 155.83 C 325.99 159.18 329.51 161.00 332.38 160.05 C 332.12 158.32 333.24 155.77 331.12 154.94 C 330.84 144.97 331.08 134.98 331.00 125.00 C 329.27 125.00 327.54 125.00 325.82 125.01 M 409.36 125.02 C 409.42 135.30 409.28 145.58 409.43 155.86 C 409.92 161.18 416.78 160.95 420.46 159.20 C 420.30 158.23 419.98 156.27 419.82 155.30 C 417.94 156.06 414.94 156.22 414.46 153.68 C 414.28 144.13 414.44 134.56 414.38 125.01 C 412.70 125.00 411.03 125.00 409.36 125.02 M 423.82 125.01 C 423.85 135.34 423.75 145.68 423.87 156.01 C 424.67 161.16 431.40 161.05 435.01 159.08 C 434.71 157.83 434.44 156.58 434.22 155.32 C 432.43 155.99 429.82 156.26 429.09 154.01 C 428.88 144.35 429.06 134.67 429.00 125.00 C 427.27 125.00 425.54 125.00 423.82 125.01 M 531.34 125.05 C 531.36 126.91 531.36 128.78 531.35 130.64 C 533.03 130.63 534.71 130.63 536.40 130.64 C 536.37 128.81 536.38 126.97 536.46 125.14 C 534.75 124.95 533.04 124.97 531.34 125.05 M 260.62 126.01 C 260.61 137.34 260.61 148.66 260.62 159.99 C 262.41 160.00 264.20 160.00 266.00 160.00 C 266.01 155.00 265.99 150.00 266.00 145.00 C 271.79 145.00 277.58 144.99 283.37 145.01 C 283.35 149.98 283.41 154.96 283.33 159.94 C 285.01 159.99 286.69 160.01 288.38 160.00 C 288.38 148.67 288.38 137.34 288.38 126.01 C 286.71 126.00 285.03 126.00 283.36 126.01 C 283.36 130.79 283.39 135.57 283.35 140.36 C 277.57 140.39 271.79 140.36 266.01 140.37 C 265.98 135.58 266.01 130.79 266.00 126.00 C 264.20 126.00 262.41 126.00 260.62 126.01 M 387.30 126.09 C 382.96 137.44 378.44 148.73 373.87 160.00 C 375.81 159.96 377.78 160.19 379.69 159.73 C 380.61 156.64 381.95 153.70 383.02 150.66 C 387.44 150.60 391.86 150.64 396.28 150.64 C 397.56 153.73 398.72 156.87 399.92 159.99 C 401.75 160.00 403.58 160.00 405.41 160.00 C 400.96 148.66 396.47 137.34 392.02 126.00 C 390.44 125.97 388.87 126.01 387.30 126.09 M 449.00 126.01 C 449.00 137.34 449.00 148.67 449.00 160.00 C 450.79 160.00 452.58 160.00 454.38 159.99 C 454.42 151.97 454.31 143.94 454.44 135.92 C 461.05 143.86 467.36 152.05 473.95 160.01 C 475.35 160.00 476.76 159.99 478.18 159.99 C 478.18 148.66 478.18 137.33 478.18 126.01 C 476.39 126.00 474.60 126.00 472.82 126.01 C 472.82 134.20 472.79 142.39 472.84 150.58 C 466.17 142.48 459.83 134.11 453.18 125.98 C 451.78 125.99 450.39 126.00 449.00 126.01 M 515.01 126.82 C 514.99 129.54 515.00 132.27 515.00 134.99 C 514.20 135.00 512.61 135.01 511.82 135.01 C 511.81 136.34 511.81 137.66 511.82 138.99 C 512.61 138.99 514.20 139.00 515.00 139.01 C 515.02 144.41 514.96 149.82 515.02 155.22 C 515.20 156.83 515.85 158.69 517.47 159.38 C 520.60 161.24 524.36 159.91 527.53 158.79 C 527.23 157.38 526.88 155.99 526.39 154.64 C 524.59 155.70 521.21 156.50 520.28 153.96 C 520.04 148.98 520.24 143.99 520.18 139.01 C 521.99 139.00 523.81 138.99 525.64 138.97 C 525.64 137.67 525.65 136.37 525.67 135.07 C 523.83 135.01 522.01 134.97 520.18 134.99 C 520.18 132.27 520.18 129.55 520.18 126.82 C 518.45 126.81 516.72 126.81 515.01 126.82 M 295.82 135.01 C 295.81 143.34 295.81 151.66 295.82 159.99 C 297.54 160.00 299.27 160.00 301.00 160.00 C 301.00 151.67 301.00 143.33 301.00 135.00 C 299.27 135.00 297.54 135.00 295.82 135.01 M 338.19 154.71 C 342.93 162.57 356.02 162.22 360.37 154.12 C 358.92 153.76 357.50 153.36 356.10 152.88 C 354.52 155.19 351.87 156.98 348.97 156.64 C 344.97 156.67 341.81 153.04 341.53 149.20 C 348.16 149.19 354.78 149.12 361.41 149.24 C 363.66 141.58 355.87 133.35 347.98 134.61 C 338.29 134.63 332.79 147.09 338.19 154.71 M 491.38 135.44 C 485.96 137.31 482.74 143.31 483.45 148.87 C 483.77 155.65 490.30 161.11 497.01 160.39 C 504.97 160.28 510.94 151.65 508.61 144.12 C 507.08 136.69 498.24 132.48 491.38 135.44 M 531.35 135.03 C 531.38 143.34 531.39 151.65 531.35 159.96 C 533.02 159.99 534.70 160.00 536.38 160.00 C 536.38 151.67 536.38 143.33 536.38 135.00 C 534.70 135.00 533.03 135.00 531.35 135.03 M 546.21 137.18 C 540.10 141.64 539.77 151.66 545.22 156.78 C 550.74 162.51 561.67 161.40 565.40 154.16 C 563.74 153.86 562.05 152.75 560.43 152.84 C 558.37 155.51 554.66 156.96 551.47 155.47 C 545.34 152.91 544.92 142.89 550.74 139.75 C 554.04 138.00 558.28 139.11 560.34 142.22 C 561.94 141.60 563.58 141.10 565.26 140.69 C 561.70 133.96 552.01 132.67 546.21 137.18 M 570.10 154.96 C 574.97 162.56 587.85 162.14 592.11 154.10 C 590.65 153.74 589.21 153.35 587.80 152.89 C 585.53 156.90 579.56 157.99 576.11 154.87 C 574.37 153.55 573.72 151.39 573.14 149.39 C 579.86 148.92 586.61 149.29 593.34 149.20 C 595.42 140.12 585.56 132.04 576.96 135.04 C 568.67 137.13 565.15 148.19 570.10 154.96 M 600.91 135.88 C 597.39 137.56 595.61 142.70 598.09 145.92 C 601.85 149.27 607.50 148.62 611.53 151.45 C 613.06 153.48 611.25 156.30 608.93 156.57 C 604.97 157.35 601.08 155.60 597.90 153.40 C 597.31 154.55 596.62 155.63 595.86 156.67 C 600.81 160.38 608.05 161.82 613.67 158.82 C 617.41 156.82 618.44 150.73 614.84 148.12 C 611.47 145.93 607.30 145.77 603.64 144.29 C 601.11 143.56 601.15 139.44 603.65 138.70 C 607.20 137.20 611.15 138.76 614.14 140.80 C 614.58 139.68 616.31 138.70 615.75 137.38 C 611.50 134.44 605.61 133.52 600.91 135.88 Z" />
<path fill="#ffffff" opacity="1.00" d=" M 701.15 120.12 C 701.53 119.94 702.29 119.57 702.67 119.38 C 703.43 119.99 704.21 120.60 705.00 121.21 C 705.93 120.55 706.88 119.89 707.82 119.23 C 709.69 120.44 707.48 121.89 706.75 123.01 C 707.43 123.85 708.13 124.68 708.84 125.51 C 708.37 125.89 707.93 126.29 707.53 126.72 C 706.69 126.08 705.86 125.45 705.04 124.83 C 703.79 125.42 702.42 127.51 701.16 125.84 C 701.86 124.90 702.57 123.96 703.29 123.02 C 702.57 122.05 701.86 121.09 701.15 120.12 Z" />
<path fill="#ffffff" opacity="1.00" d=" M 389.62 131.94 C 391.77 136.79 393.34 141.88 395.30 146.82 C 391.51 146.81 387.73 146.84 383.94 146.79 C 385.83 141.84 387.85 136.93 389.62 131.94 Z" />
<path fill="#ffffff" opacity="1.00" d=" M 346.47 138.71 C 351.28 136.76 356.40 140.69 356.96 145.58 C 351.72 145.64 346.49 145.64 341.26 145.58 C 341.88 142.65 343.34 139.58 346.47 138.71 Z" />
<path fill="#ffffff" opacity="1.00" d=" M 573.08 145.59 C 573.37 140.65 578.70 136.72 583.44 138.74 C 586.56 139.59 588.00 142.71 588.73 145.59 C 583.51 145.63 578.29 145.63 573.08 145.59 Z" />
<path fill="#ffffff" opacity="1.00" d=" M 315.43 139.52 C 318.44 138.21 322.16 139.17 324.22 141.73 C 326.85 144.09 325.56 147.88 325.77 150.97 C 324.60 155.88 317.39 157.71 313.86 154.13 C 309.38 150.33 310.32 142.32 315.43 139.52 Z" />
<path fill="#ffffff" opacity="1.00" d=" M 493.36 139.48 C 497.15 137.81 501.88 139.90 503.09 143.89 C 505.72 149.21 501.39 157.22 494.98 155.94 C 487.22 154.69 486.50 142.52 493.36 139.48 Z" />
</g>
<g id="#7086a3ff">
<path fill="#7086a3" opacity="1.00" d=" M 78.79 88.72 C 79.61 88.67 81.26 88.58 82.08 88.53 C 84.79 92.01 88.09 95.91 92.96 95.74 C 97.89 96.29 101.74 92.66 104.08 88.73 C 107.40 88.55 110.73 88.57 114.06 88.66 C 116.66 92.26 120.21 95.94 125.04 95.75 C 129.96 96.21 133.59 92.40 136.01 88.62 C 137.69 88.65 139.37 88.69 141.05 88.75 C 141.80 92.86 143.13 96.83 144.16 100.87 C 145.11 105.31 146.78 109.53 148.30 113.79 C 122.76 113.78 97.23 113.79 71.69 113.78 C 73.71 108.16 75.94 102.55 76.91 96.62 C 77.68 94.02 78.48 91.42 78.79 88.72 M 104.33 93.50 C 102.28 94.52 103.73 96.92 104.84 98.09 C 107.15 101.07 111.92 101.20 114.48 98.46 C 115.61 97.33 116.80 95.00 115.28 93.72 C 111.85 92.41 107.79 92.22 104.33 93.50 M 90.32 100.29 C 90.28 100.67 90.20 101.41 90.16 101.79 C 93.94 101.70 97.45 99.98 101.02 98.88 C 101.07 98.37 101.17 97.34 101.22 96.83 C 97.53 97.77 93.78 98.68 90.32 100.29 M 118.13 97.20 C 118.21 97.56 118.38 98.29 118.46 98.65 C 121.89 100.14 125.53 101.12 129.15 102.05 C 129.12 101.54 129.08 100.53 129.05 100.02 C 125.49 98.90 121.92 97.03 118.13 97.20 M 91.53 106.06 C 91.66 106.50 91.90 107.36 92.02 107.79 C 95.76 106.06 99.45 104.14 102.87 101.86 L 103.17 100.88 C 102.85 100.76 102.20 100.51 101.87 100.39 C 98.33 102.08 94.84 103.94 91.53 106.06 M 117.20 100.15 C 117.11 100.57 116.92 101.40 116.83 101.81 C 120.06 103.99 123.56 105.76 127.06 107.47 L 128.40 107.23 C 128.18 106.81 127.73 105.96 127.51 105.53 C 124.16 103.60 120.78 101.63 117.20 100.15 Z" />
</g>
<g id="#855a31ff">
<path fill="#855a31" opacity="1.00" d=" M 25.39 103.55 C 21.76 99.25 26.29 93.08 30.93 92.18 C 34.04 91.45 36.25 93.92 38.16 95.91 C 44.15 101.88 50.06 107.93 56.13 113.81 C 59.85 113.76 63.57 113.79 67.29 113.79 C 68.76 113.78 70.22 113.78 71.69 113.78 C 97.23 113.79 122.76 113.78 148.30 113.79 C 149.74 113.78 151.19 113.78 152.65 113.78 C 156.69 113.79 160.74 113.75 164.79 113.81 C 171.80 107.14 178.41 100.05 185.44 93.40 C 190.82 88.94 199.59 97.15 196.02 102.94 C 189.38 110.24 181.81 116.79 175.31 124.17 C 175.38 147.90 175.23 171.63 175.39 195.36 C 175.40 197.82 175.81 200.43 174.73 202.74 C 173.71 205.21 171.20 206.52 169.27 208.18 L 169.18 208.27 C 166.19 207.38 163.07 207.76 160.01 207.72 C 127.34 207.72 94.67 207.72 62.00 207.72 C 58.89 207.74 55.74 207.46 52.68 208.17 L 52.67 208.17 C 50.74 206.52 48.24 205.21 47.26 202.73 C 46.29 200.65 46.49 198.30 46.48 196.08 C 46.72 173.39 46.49 150.68 46.60 127.99 C 46.43 126.72 47.08 125.04 45.92 124.11 C 39.08 117.26 32.17 110.47 25.39 103.55 M 30.38 96.95 C 28.90 97.74 27.04 99.68 28.68 101.28 C 35.57 108.43 42.76 115.30 49.72 122.39 C 50.44 123.07 50.73 123.92 50.58 124.94 C 50.55 149.63 50.56 174.32 50.57 199.02 C 50.31 201.47 52.36 203.93 54.91 203.72 C 90.60 203.78 126.31 203.71 162.01 203.75 C 164.20 203.73 166.41 203.91 168.59 203.54 C 170.43 202.88 171.53 200.90 171.35 198.99 C 171.41 173.44 171.32 147.90 171.39 122.35 C 178.05 115.34 185.08 108.69 191.83 101.76 C 194.83 99.26 190.19 95.00 187.29 96.34 C 180.21 103.11 173.38 110.31 166.06 116.74 C 128.80 116.73 91.54 116.71 54.29 116.75 C 47.39 110.02 40.52 103.26 33.61 96.54 C 32.53 95.44 31.45 95.58 30.38 96.95 Z" />
</g>
<g id="#44546bff">
<path fill="#44546b" opacity="1.00" d=" M 104.33 93.50 C 107.79 92.22 111.85 92.41 115.28 93.72 C 116.80 95.00 115.61 97.33 114.48 98.46 C 111.92 101.20 107.15 101.07 104.84 98.09 C 103.73 96.92 102.28 94.52 104.33 93.50 Z" />
<path fill="#44546b" opacity="1.00" d=" M 74.40 102.51 C 75.28 100.57 76.19 98.63 76.91 96.62 C 75.94 102.55 73.71 108.16 71.69 113.78 C 70.22 113.78 68.76 113.78 67.29 113.79 C 68.86 110.06 69.98 106.17 71.57 102.45 C 72.51 102.51 73.45 102.50 74.40 102.51 Z" />
<path fill="#44546b" opacity="1.00" d=" M 144.16 100.87 C 144.53 101.26 145.28 102.05 145.65 102.44 C 146.57 102.45 147.50 102.49 148.42 102.47 C 150.02 106.16 151.19 110.02 152.65 113.78 C 151.19 113.78 149.74 113.78 148.30 113.79 C 146.78 109.53 145.11 105.31 144.16 100.87 Z" />
<path fill="#44546b" opacity="1.00" d=" M 95.38 142.55 C 95.76 142.31 96.53 141.84 96.91 141.61 C 106.31 141.51 115.73 141.48 125.13 141.62 C 129.38 143.13 129.34 149.90 125.07 151.35 C 116.05 151.54 107.01 151.39 97.99 151.42 C 93.66 151.47 92.03 144.98 95.38 142.55 Z" />
</g>
<g id="#ecce9eff">
<path fill="#ecce9e" opacity="1.00" d=" M 30.38 96.95 C 31.45 95.58 32.53 95.44 33.61 96.54 C 40.52 103.26 47.39 110.02 54.29 116.75 C 91.54 116.71 128.80 116.73 166.06 116.74 C 173.38 110.31 180.21 103.11 187.29 96.34 C 187.84 96.44 188.95 96.65 189.51 96.76 C 189.01 98.07 188.18 99.21 187.15 100.16 C 181.21 105.88 175.33 111.66 169.50 117.49 C 168.50 118.32 167.52 119.62 166.05 119.38 C 129.02 119.38 91.99 119.37 54.96 119.38 C 53.17 119.69 52.07 118.21 50.93 117.14 C 44.15 110.34 37.14 103.77 30.38 96.95 Z" />
</g>
<g id="#af8e5aff">
<path fill="#af8e5a" opacity="1.00" d=" M 187.29 96.34 C 190.19 95.00 194.83 99.26 191.83 101.76 C 185.08 108.69 178.05 115.34 171.39 122.35 C 171.32 147.90 171.41 173.44 171.35 198.99 C 171.53 200.90 170.43 202.88 168.59 203.54 C 166.41 203.91 164.20 203.73 162.01 203.75 C 126.31 203.71 90.60 203.78 54.91 203.72 C 52.36 203.93 50.31 201.47 50.57 199.02 C 50.56 174.32 50.55 149.63 50.58 124.94 C 50.73 123.92 50.44 123.07 49.72 122.39 C 42.76 115.30 35.57 108.43 28.68 101.28 C 27.04 99.68 28.90 97.74 30.38 96.95 C 37.14 103.77 44.15 110.34 50.93 117.14 C 52.07 118.21 53.17 119.69 54.96 119.38 C 91.99 119.37 129.02 119.38 166.05 119.38 C 167.52 119.62 168.50 118.32 169.50 117.49 C 175.33 111.66 181.21 105.88 187.15 100.16 C 188.18 99.21 189.01 98.07 189.51 96.76 C 188.95 96.65 187.84 96.44 187.29 96.34 M 94.53 139.66 C 90.61 141.11 90.99 145.66 91.23 149.05 C 91.17 151.97 94.19 154.19 96.98 153.75 C 106.95 153.65 116.92 153.89 126.89 153.65 C 130.87 152.82 131.13 148.28 130.75 144.99 C 131.19 141.87 128.16 139.01 125.09 139.39 C 114.91 139.54 104.68 139.01 94.53 139.66 Z" />
</g>
<g id="#485970ff">
<path fill="#485970" opacity="1.00" d=" M 90.32 100.29 C 93.78 98.68 97.53 97.77 101.22 96.83 C 101.17 97.34 101.07 98.37 101.02 98.88 C 97.45 99.98 93.94 101.70 90.16 101.79 C 90.20 101.41 90.28 100.67 90.32 100.29 Z" />
<path fill="#485970" opacity="1.00" d=" M 118.13 97.20 C 121.92 97.03 125.49 98.90 129.05 100.02 C 129.08 100.53 129.12 101.54 129.15 102.05 C 125.53 101.12 121.89 100.14 118.46 98.65 C 118.38 98.29 118.21 97.56 118.13 97.20 Z" />
</g>
<g id="#46576eff">
<path fill="#46576e" opacity="1.00" d=" M 91.53 106.06 C 94.84 103.94 98.33 102.08 101.87 100.39 C 102.20 100.51 102.85 100.76 103.17 100.88 L 102.87 101.86 C 99.45 104.14 95.76 106.06 92.02 107.79 C 91.90 107.36 91.66 106.50 91.53 106.06 Z" />
</g>
<g id="#46566dff">
<path fill="#46566d" opacity="1.00" d=" M 117.20 100.15 C 120.78 101.63 124.16 103.60 127.51 105.53 C 127.73 105.96 128.18 106.81 128.40 107.23 L 127.06 107.47 C 123.56 105.76 120.06 103.99 116.83 101.81 C 116.92 101.40 117.11 100.57 117.20 100.15 Z" />
</g>
<g id="#46b450ff">
<path fill="#46b450" opacity="1.00" d=" M 232.00 104.00 C 233.33 104.00 234.66 104.00 236.00 104.01 C 236.00 127.36 236.00 150.72 236.00 174.07 C 234.65 174.09 233.31 174.10 231.96 174.09 C 231.97 150.73 231.90 127.36 232.00 104.00 Z" />
</g>
<g id="#b4b9beff">
<path fill="#b4b9be" opacity="1.00" d=" M 702.23 117.15 C 706.22 114.93 711.80 118.41 711.52 122.98 C 711.83 127.58 706.21 131.10 702.20 128.84 C 697.36 126.85 697.39 119.11 702.23 117.15 M 701.15 120.12 C 701.86 121.09 702.57 122.05 703.29 123.02 C 702.57 123.96 701.86 124.90 701.16 125.84 C 702.42 127.51 703.79 125.42 705.04 124.83 C 705.86 125.45 706.69 126.08 707.53 126.72 C 707.93 126.29 708.37 125.89 708.84 125.51 C 708.13 124.68 707.43 123.85 706.75 123.01 C 707.48 121.89 709.69 120.44 707.82 119.23 C 706.88 119.89 705.93 120.55 705.00 121.21 C 704.21 120.60 703.43 119.99 702.67 119.38 C 702.29 119.57 701.53 119.94 701.15 120.12 Z" />
</g>
<g id="#1d1d1fff">
<path fill="#1d1d1f" opacity="1.00" d=" M 295.82 125.01 C 297.54 125.00 299.27 125.00 301.00 125.00 C 301.00 126.88 301.00 128.75 300.99 130.63 C 299.26 130.63 297.53 130.63 295.81 130.63 C 295.81 128.75 295.81 126.88 295.82 125.01 Z" />
<path fill="#1d1d1f" opacity="1.00" d=" M 325.82 125.01 C 327.54 125.00 329.27 125.00 331.00 125.00 C 331.08 134.98 330.84 144.97 331.12 154.94 C 333.24 155.77 332.12 158.32 332.38 160.05 C 329.51 161.00 325.99 159.18 326.57 155.83 C 324.26 158.19 321.46 160.40 317.98 160.41 C 311.20 160.92 305.60 154.42 305.65 147.92 C 305.24 141.84 309.55 135.00 316.01 134.60 C 320.05 134.12 323.95 136.48 325.96 139.91 C 325.68 134.95 325.87 129.97 325.82 125.01 M 315.43 139.52 C 310.32 142.32 309.38 150.33 313.86 154.13 C 317.39 157.71 324.60 155.88 325.77 150.97 C 325.56 147.88 326.85 144.09 324.22 141.73 C 322.16 139.17 318.44 138.21 315.43 139.52 Z" />
<path fill="#1d1d1f" opacity="1.00" d=" M 409.36 125.02 C 411.03 125.00 412.70 125.00 414.38 125.01 C 414.44 134.56 414.28 144.13 414.46 153.68 C 414.94 156.22 417.94 156.06 419.82 155.30 C 419.98 156.27 420.30 158.23 420.46 159.20 C 416.78 160.95 409.92 161.18 409.43 155.86 C 409.28 145.58 409.42 135.30 409.36 125.02 Z" />
<path fill="#1d1d1f" opacity="1.00" d=" M 423.82 125.01 C 425.54 125.00 427.27 125.00 429.00 125.00 C 429.06 134.67 428.88 144.35 429.09 154.01 C 429.82 156.26 432.43 155.99 434.22 155.32 C 434.44 156.58 434.71 157.83 435.01 159.08 C 431.40 161.05 424.67 161.16 423.87 156.01 C 423.75 145.68 423.85 135.34 423.82 125.01 Z" />
<path fill="#1d1d1f" opacity="1.00" d=" M 531.34 125.05 C 533.04 124.97 534.75 124.95 536.46 125.14 C 536.38 126.97 536.37 128.81 536.40 130.64 C 534.71 130.63 533.03 130.63 531.35 130.64 C 531.36 128.78 531.36 126.91 531.34 125.05 Z" />
<path fill="#1d1d1f" opacity="1.00" d=" M 260.62 126.01 C 262.41 126.00 264.20 126.00 266.00 126.00 C 266.01 130.79 265.98 135.58 266.01 140.37 C 271.79 140.36 277.57 140.39 283.35 140.36 C 283.39 135.57 283.36 130.79 283.36 126.01 C 285.03 126.00 286.71 126.00 288.38 126.01 C 288.38 137.34 288.38 148.67 288.38 160.00 C 286.69 160.01 285.01 159.99 283.33 159.94 C 283.41 154.96 283.35 149.98 283.37 145.01 C 277.58 144.99 271.79 145.00 266.00 145.00 C 265.99 150.00 266.01 155.00 266.00 160.00 C 264.20 160.00 262.41 160.00 260.62 159.99 C 260.61 148.66 260.61 137.34 260.62 126.01 Z" />
<path fill="#1d1d1f" opacity="1.00" d=" M 387.30 126.09 C 388.87 126.01 390.44 125.97 392.02 126.00 C 396.47 137.34 400.96 148.66 405.41 160.00 C 403.58 160.00 401.75 160.00 399.92 159.99 C 398.72 156.87 397.56 153.73 396.28 150.64 C 391.86 150.64 387.44 150.60 383.02 150.66 C 381.95 153.70 380.61 156.64 379.69 159.73 C 377.78 160.19 375.81 159.96 373.87 160.00 C 378.44 148.73 382.96 137.44 387.30 126.09 M 389.62 131.94 C 387.85 136.93 385.83 141.84 383.94 146.79 C 387.73 146.84 391.51 146.81 395.30 146.82 C 393.34 141.88 391.77 136.79 389.62 131.94 Z" />
<path fill="#1d1d1f" opacity="1.00" d=" M 449.00 126.01 C 450.39 126.00 451.78 125.99 453.18 125.98 C 459.83 134.11 466.17 142.48 472.84 150.58 C 472.79 142.39 472.82 134.20 472.82 126.01 C 474.60 126.00 476.39 126.00 478.18 126.01 C 478.18 137.33 478.18 148.66 478.18 159.99 C 476.76 159.99 475.35 160.00 473.95 160.01 C 467.36 152.05 461.05 143.86 454.44 135.92 C 454.31 143.94 454.42 151.97 454.38 159.99 C 452.58 160.00 450.79 160.00 449.00 160.00 C 449.00 148.67 449.00 137.34 449.00 126.01 Z" />
<path fill="#1d1d1f" opacity="1.00" d=" M 515.01 126.82 C 516.72 126.81 518.45 126.81 520.18 126.82 C 520.18 129.55 520.18 132.27 520.18 134.99 C 522.01 134.97 523.83 135.01 525.67 135.07 C 525.65 136.37 525.64 137.67 525.64 138.97 C 523.81 138.99 521.99 139.00 520.18 139.01 C 520.24 143.99 520.04 148.98 520.28 153.96 C 521.21 156.50 524.59 155.70 526.39 154.64 C 526.88 155.99 527.23 157.38 527.53 158.79 C 524.36 159.91 520.60 161.24 517.47 159.38 C 515.85 158.69 515.20 156.83 515.02 155.22 C 514.96 149.82 515.02 144.41 515.00 139.01 C 514.20 139.00 512.61 138.99 511.82 138.99 C 511.81 137.66 511.81 136.34 511.82 135.01 C 512.61 135.01 514.20 135.00 515.00 134.99 C 515.00 132.27 514.99 129.54 515.01 126.82 Z" />
<path fill="#1d1d1f" opacity="1.00" d=" M 295.82 135.01 C 297.54 135.00 299.27 135.00 301.00 135.00 C 301.00 143.33 301.00 151.67 301.00 160.00 C 299.27 160.00 297.54 160.00 295.82 159.99 C 295.81 151.66 295.81 143.34 295.82 135.01 Z" />
<path fill="#1d1d1f" opacity="1.00" d=" M 338.19 154.71 C 332.79 147.09 338.29 134.63 347.98 134.61 C 355.87 133.35 363.66 141.58 361.41 149.24 C 354.78 149.12 348.16 149.19 341.53 149.20 C 341.81 153.04 344.97 156.67 348.97 156.64 C 351.87 156.98 354.52 155.19 356.10 152.88 C 357.50 153.36 358.92 153.76 360.37 154.12 C 356.02 162.22 342.93 162.57 338.19 154.71 M 346.47 138.71 C 343.34 139.58 341.88 142.65 341.26 145.58 C 346.49 145.64 351.72 145.64 356.96 145.58 C 356.40 140.69 351.28 136.76 346.47 138.71 Z" />
<path fill="#1d1d1f" opacity="1.00" d=" M 491.38 135.44 C 498.24 132.48 507.08 136.69 508.61 144.12 C 510.94 151.65 504.97 160.28 497.01 160.39 C 490.30 161.11 483.77 155.65 483.45 148.87 C 482.74 143.31 485.96 137.31 491.38 135.44 M 493.36 139.48 C 486.50 142.52 487.22 154.69 494.98 155.94 C 501.39 157.22 505.72 149.21 503.09 143.89 C 501.88 139.90 497.15 137.81 493.36 139.48 Z" />
<path fill="#1d1d1f" opacity="1.00" d=" M 531.35 135.03 C 533.03 135.00 534.70 135.00 536.38 135.00 C 536.38 143.33 536.38 151.67 536.38 160.00 C 534.70 160.00 533.02 159.99 531.35 159.96 C 531.39 151.65 531.38 143.34 531.35 135.03 Z" />
<path fill="#1d1d1f" opacity="1.00" d=" M 546.21 137.18 C 552.01 132.67 561.70 133.96 565.26 140.69 C 563.58 141.10 561.94 141.60 560.34 142.22 C 558.28 139.11 554.04 138.00 550.74 139.75 C 544.92 142.89 545.34 152.91 551.47 155.47 C 554.66 156.96 558.37 155.51 560.43 152.84 C 562.05 152.75 563.74 153.86 565.40 154.16 C 561.67 161.40 550.74 162.51 545.22 156.78 C 539.77 151.66 540.10 141.64 546.21 137.18 Z" />
<path fill="#1d1d1f" opacity="1.00" d=" M 570.10 154.96 C 565.15 148.19 568.67 137.13 576.96 135.04 C 585.56 132.04 595.42 140.12 593.34 149.20 C 586.61 149.29 579.86 148.92 573.14 149.39 C 573.72 151.39 574.37 153.55 576.11 154.87 C 579.56 157.99 585.53 156.90 587.80 152.89 C 589.21 153.35 590.65 153.74 592.11 154.10 C 587.85 162.14 574.97 162.56 570.10 154.96 M 573.08 145.59 C 578.29 145.63 583.51 145.63 588.73 145.59 C 588.00 142.71 586.56 139.59 583.44 138.74 C 578.70 136.72 573.37 140.65 573.08 145.59 Z" />
<path fill="#1d1d1f" opacity="1.00" d=" M 600.91 135.88 C 605.61 133.52 611.50 134.44 615.75 137.38 C 616.31 138.70 614.58 139.68 614.14 140.80 C 611.15 138.76 607.20 137.20 603.65 138.70 C 601.15 139.44 601.11 143.56 603.64 144.29 C 607.30 145.77 611.47 145.93 614.84 148.12 C 618.44 150.73 617.41 156.82 613.67 158.82 C 608.05 161.82 600.81 160.38 595.86 156.67 C 596.62 155.63 597.31 154.55 597.90 153.40 C 601.08 155.60 604.97 157.35 608.93 156.57 C 611.25 156.30 613.06 153.48 611.53 151.45 C 607.50 148.62 601.85 149.27 598.09 145.92 C 595.61 142.70 597.39 137.56 600.91 135.88 Z" />
</g>
<g id="#f8d6a0ff">
<path fill="#f8d6a0" opacity="1.00" d=" M 94.53 139.66 C 104.68 139.01 114.91 139.54 125.09 139.39 C 128.16 139.01 131.19 141.87 130.75 144.99 C 131.13 148.28 130.87 152.82 126.89 153.65 C 116.92 153.89 106.95 153.65 96.98 153.75 C 94.19 154.19 91.17 151.97 91.23 149.05 C 90.99 145.66 90.61 141.11 94.53 139.66 M 95.38 142.55 C 92.03 144.98 93.66 151.47 97.99 151.42 C 107.01 151.39 116.05 151.54 125.07 151.35 C 129.34 149.90 129.38 143.13 125.13 141.62 C 115.73 141.48 106.31 141.51 96.91 141.61 C 96.53 141.84 95.76 142.31 95.38 142.55 Z" />
</g>
<g id="#a9a9a9ff">
<path fill="#a9a9a9" opacity="1.00" d=" M 175.39 195.36 C 181.03 197.50 188.63 196.67 192.61 201.92 C 189.96 205.52 184.97 205.90 180.95 206.98 C 177.08 207.38 173.12 209.27 169.27 208.18 C 171.20 206.52 173.71 205.21 174.73 202.74 C 175.81 200.43 175.40 197.82 175.39 195.36 Z" />
<path fill="#a9a9a9" opacity="1.00" d=" M 32.40 199.54 C 36.80 197.49 41.65 196.43 46.48 196.08 C 46.49 198.30 46.29 200.65 47.26 202.73 C 48.24 205.21 50.74 206.52 52.67 208.17 C 49.83 209.04 46.94 207.82 44.11 207.46 C 39.58 206.51 34.64 205.90 30.84 203.06 C 29.43 201.67 31.07 200.11 32.40 199.54 Z" />
</g>
<g id="#acacacff">
<path fill="#acacac" opacity="1.00" d=" M 52.68 208.17 C 55.74 207.46 58.89 207.74 62.00 207.72 C 94.67 207.72 127.34 207.72 160.01 207.72 C 163.07 207.76 166.19 207.38 169.18 208.27 C 168.26 208.76 167.29 209.07 166.26 209.18 C 146.27 211.62 126.09 211.90 105.98 211.88 C 90.29 211.68 74.56 211.31 58.97 209.46 C 56.85 209.19 54.57 209.33 52.68 208.17 Z" />
</g>
</svg>
