<?xml version="1.0" encoding="UTF-8" ?>
<!DOCTYPE svg PUBLIC "-//W3C//DTD SVG 1.1//EN" "http://www.w3.org/Graphics/SVG/1.1/DTD/svg11.dtd">
<svg width="256pt" height="256pt" viewBox="0 0 256 256" version="1.1" xmlns="http://www.w3.org/2000/svg">
<g id="#005446ff">
<path fill="#005446" opacity="1.00" d=" M 89.33 2.37 C 91.45 0.07 95.02 -0.22 97.68 1.30 C 102.74 3.95 106.06 8.83 109.19 13.44 C 120.95 11.38 133.02 11.55 144.79 13.49 C 147.92 8.85 151.25 3.94 156.35 1.29 C 159.00 -0.22 162.54 0.08 164.66 2.36 C 170.22 8.03 171.75 16.10 174.94 23.09 C 178.28 28.79 182.37 34.11 184.64 40.39 C 189.37 50.84 187.22 62.87 191.51 73.44 C 192.98 77.19 195.70 80.30 197.10 84.08 C 197.91 86.00 197.15 88.22 195.67 89.58 C 192.70 92.55 188.33 93.10 184.39 93.79 C 182.80 93.68 180.93 94.31 179.53 93.40 C 178.25 91.64 177.81 89.46 177.17 87.43 C 175.38 80.62 173.46 73.86 171.61 67.07 C 168.68 67.04 165.74 67.01 162.80 67.02 C 160.51 67.01 158.23 67.01 155.94 67.01 C 151.89 67.00 147.83 67.01 143.77 67.00 C 141.38 67.00 138.99 67.00 136.60 67.00 C 129.66 66.99 122.71 67.00 115.77 67.02 C 113.27 67.02 110.78 67.00 108.28 67.00 C 104.23 66.99 100.17 67.01 96.12 67.01 C 93.97 67.00 91.82 66.99 89.67 67.00 C 87.25 67.01 84.83 67.04 82.41 67.08 C 80.59 74.02 78.71 80.94 76.96 87.89 C 76.33 89.82 76.00 91.99 74.63 93.56 C 73.18 94.02 71.63 93.84 70.13 93.82 C 66.05 93.12 61.50 92.65 58.38 89.62 C 56.86 88.25 56.06 86.00 56.91 84.05 C 58.77 79.35 62.33 75.45 63.54 70.45 C 66.49 59.50 65.42 47.67 70.06 37.12 C 72.12 31.28 76.83 27.02 79.70 21.65 C 82.42 15.03 84.19 7.65 89.33 2.37 M 92.62 7.59 C 90.09 9.51 89.91 12.92 88.67 15.62 C 85.07 25.73 76.98 33.61 74.12 44.05 C 72.16 51.33 71.24 58.85 69.26 66.13 C 67.89 72.05 65.36 77.59 62.90 83.11 C 61.82 84.71 64.25 85.69 64.95 86.80 C 66.86 87.08 68.76 87.42 70.67 87.78 C 72.96 79.91 74.77 71.90 77.10 64.04 C 77.77 60.26 82.32 61.25 85.09 60.52 C 86.66 61.11 88.29 61.64 89.99 61.71 C 112.96 63.01 136.01 63.22 158.99 62.00 C 162.65 61.79 166.47 62.07 169.90 60.52 C 171.79 60.83 173.71 61.07 175.54 61.69 C 176.75 62.93 177.08 64.73 177.64 66.32 C 179.59 73.45 181.51 80.58 183.56 87.68 C 185.58 87.34 187.61 87.01 189.64 86.72 C 190.01 86.02 190.77 84.63 191.15 83.94 C 188.45 78.61 186.09 73.09 184.57 67.30 C 182.25 59.07 181.77 50.38 178.57 42.39 C 175.07 33.09 168.29 25.43 165.03 16.01 C 163.73 13.08 163.51 9.39 160.70 7.40 C 160.57 7.00 160.31 6.20 160.18 5.80 C 157.57 7.60 154.93 9.48 153.09 12.10 C 151.19 14.55 150.02 17.54 147.82 19.76 C 143.53 19.78 139.34 18.63 135.08 18.32 C 125.36 17.27 115.63 18.44 106.05 20.01 C 102.89 15.26 100.24 9.77 95.19 6.71 C 94.31 5.96 93.19 6.89 92.62 7.59 Z" />
</g>
<g id="#007c57ff">
<path fill="#007c57" opacity="1.00" d=" M 92.62 7.59 C 93.19 6.89 94.31 5.96 95.19 6.71 C 100.24 9.77 102.89 15.26 106.05 20.01 C 115.63 18.44 125.36 17.27 135.08 18.32 C 139.34 18.63 143.53 19.78 147.82 19.76 C 150.02 17.54 151.19 14.55 153.09 12.10 C 154.93 9.48 157.57 7.60 160.18 5.80 C 160.31 6.20 160.57 7.00 160.70 7.40 C 161.94 11.47 162.93 15.63 164.51 19.59 C 167.34 26.85 171.55 33.49 174.22 40.82 C 178.04 50.99 178.09 62.10 181.68 72.34 C 183.56 77.48 185.14 83.19 189.64 86.72 C 187.61 87.01 185.58 87.34 183.56 87.68 C 181.51 80.58 179.59 73.45 177.64 66.32 C 177.08 64.73 176.75 62.93 175.54 61.69 C 173.71 61.07 171.79 60.83 169.90 60.52 C 166.95 60.04 163.98 59.68 161.00 59.51 C 138.69 58.34 116.32 58.32 94.01 59.53 C 91.02 59.69 88.05 60.07 85.09 60.52 C 82.32 61.25 77.77 60.26 77.10 64.04 C 74.77 71.90 72.96 79.91 70.67 87.78 C 68.76 87.42 66.86 87.08 64.95 86.80 C 72.95 75.10 74.90 60.75 77.21 47.11 C 79.13 35.59 86.94 26.36 90.45 15.41 C 91.30 12.84 91.91 10.20 92.62 7.59 M 114.25 20.39 C 107.29 21.86 100.01 24.74 95.69 30.69 C 93.09 34.24 92.39 39.89 95.90 43.11 C 99.64 46.31 104.80 46.83 109.50 47.36 C 119.19 47.99 128.93 47.98 138.61 47.39 C 143.35 46.89 148.51 46.42 152.38 43.35 C 155.46 40.88 155.65 36.33 154.12 32.94 C 152.00 28.26 147.53 25.16 142.97 23.10 C 133.99 19.21 123.80 18.59 114.25 20.39 Z" />
</g>
<g id="#4da374ff">
<path fill="#4da374" opacity="1.00" d=" M 88.67 15.62 C 89.91 12.92 90.09 9.51 92.62 7.59 C 91.91 10.20 91.30 12.84 90.45 15.41 C 86.94 26.36 79.13 35.59 77.21 47.11 C 74.90 60.75 72.95 75.10 64.95 86.80 C 64.25 85.69 61.82 84.71 62.90 83.11 C 65.36 77.59 67.89 72.05 69.26 66.13 C 71.24 58.85 72.16 51.33 74.12 44.05 C 76.98 33.61 85.07 25.73 88.67 15.62 Z" />
<path fill="#4da374" opacity="1.00" d=" M 160.70 7.40 C 163.51 9.39 163.73 13.08 165.03 16.01 C 168.29 25.43 175.07 33.09 178.57 42.39 C 181.77 50.38 182.25 59.07 184.57 67.30 C 186.09 73.09 188.45 78.61 191.15 83.94 C 190.77 84.63 190.01 86.02 189.64 86.72 C 185.14 83.19 183.56 77.48 181.68 72.34 C 178.09 62.10 178.04 50.99 174.22 40.82 C 171.55 33.49 167.34 26.85 164.51 19.59 C 162.93 15.63 161.94 11.47 160.70 7.40 Z" />
<path fill="#4da374" opacity="1.00" d=" M 114.25 20.39 C 123.80 18.59 133.99 19.21 142.97 23.10 C 147.53 25.16 152.00 28.26 154.12 32.94 C 155.65 36.33 155.46 40.88 152.38 43.35 C 148.51 46.42 143.35 46.89 138.61 47.39 C 128.93 47.98 119.19 47.99 109.50 47.36 C 104.80 46.83 99.64 46.31 95.90 43.11 C 92.39 39.89 93.09 34.24 95.69 30.69 C 100.01 24.74 107.29 21.86 114.25 20.39 Z" />
<path fill="#4da374" opacity="1.00" d=" M 94.01 59.53 C 116.32 58.32 138.69 58.34 161.00 59.51 C 163.98 59.68 166.95 60.04 169.90 60.52 C 166.47 62.07 162.65 61.79 158.99 62.00 C 136.01 63.22 112.96 63.01 89.99 61.71 C 88.29 61.64 86.66 61.11 85.09 60.52 C 88.05 60.07 91.02 59.69 94.01 59.53 Z" />
</g>
<g id="#44546bff">
<path fill="#44546b" opacity="1.00" d=" M 82.41 67.08 C 84.83 67.04 87.25 67.01 89.67 67.00 C 89.87 68.51 90.04 70.04 90.38 71.53 C 92.49 76.93 98.26 80.69 104.09 79.92 C 108.73 79.56 112.86 76.20 114.40 71.84 C 114.98 70.27 115.36 68.64 115.77 67.02 C 122.71 67.00 129.66 66.99 136.60 67.00 C 136.88 68.57 136.99 70.20 137.57 71.71 C 139.72 77.39 146.15 80.92 152.10 79.81 C 156.46 79.17 160.03 75.79 161.50 71.73 C 162.02 70.18 162.39 68.59 162.80 67.02 C 165.74 67.01 168.68 67.04 171.61 67.07 C 173.46 73.86 175.38 80.62 177.17 87.43 C 177.81 89.46 178.25 91.64 179.53 93.40 C 180.93 94.31 182.80 93.68 184.39 93.79 C 186.26 99.49 188.26 105.15 190.49 110.73 C 188.33 110.72 186.18 110.73 184.04 110.73 C 179.24 98.61 175.85 86.02 172.35 73.49 C 170.03 73.53 167.72 73.58 165.41 73.63 C 163.58 76.32 161.88 79.25 159.17 81.16 C 152.99 85.51 143.87 84.73 138.38 79.59 C 136.54 77.84 135.15 75.69 133.69 73.63 C 128.58 73.49 123.47 73.49 118.36 73.64 C 116.55 76.32 114.82 79.21 112.13 81.11 C 106.16 85.32 97.42 84.85 91.88 80.12 C 89.77 78.31 88.29 75.92 86.73 73.66 C 85.17 73.63 83.61 73.61 82.05 73.60 C 78.80 86.14 75.16 98.61 70.55 110.73 C 68.38 110.73 66.20 110.73 64.03 110.73 C 66.28 105.18 68.24 99.51 70.13 93.82 C 71.63 93.84 73.18 94.02 74.63 93.56 C 76.00 91.99 76.33 89.82 76.96 87.89 C 78.71 80.94 80.59 74.02 82.41 67.08 Z" />
<path fill="#44546b" opacity="1.00" d=" M 116.80 82.20 C 120.72 78.80 126.24 79.37 131.03 79.84 C 132.96 80.26 135.88 80.44 136.25 82.89 C 135.83 89.30 127.66 92.88 122.35 89.72 C 119.38 88.23 118.03 85.07 116.80 82.20 Z" />
<path fill="#44546b" opacity="1.00" d=" M 98.22 90.45 C 103.48 88.69 108.77 86.99 114.16 85.65 C 114.33 86.54 114.50 87.44 114.67 88.34 C 109.25 90.06 103.91 92.11 98.28 93.05 C 98.27 92.40 98.23 91.10 98.22 90.45 Z" />
<path fill="#44546b" opacity="1.00" d=" M 141.09 88.82 C 139.38 88.65 138.57 85.42 141.04 86.07 C 146.14 86.84 150.91 89.00 155.87 90.35 C 155.86 91.04 155.85 92.42 155.84 93.12 C 150.84 92.01 145.89 90.61 141.09 88.82 Z" />
<path fill="#44546b" opacity="1.00" d=" M 114.34 91.32 C 115.01 91.30 116.34 91.25 117.01 91.23 C 116.97 93.68 114.42 94.49 112.67 95.56 C 108.80 97.43 105.25 100.03 101.12 101.33 C 98.70 101.12 100.42 98.17 101.95 97.90 C 106.07 95.69 110.08 93.25 114.34 91.32 Z" />
<path fill="#44546b" opacity="1.00" d=" M 137.96 90.72 C 143.63 92.74 148.88 95.92 153.97 99.09 C 155.55 102.82 150.92 100.72 149.31 99.76 C 145.37 97.19 140.39 95.86 137.23 92.30 C 137.42 91.91 137.78 91.11 137.96 90.72 Z" />
<path fill="#44546b" opacity="1.00" d=" M 107.19 152.33 C 109.72 151.57 112.42 151.85 115.03 151.79 C 126.01 151.94 137.01 151.65 147.99 151.91 C 154.67 151.83 156.28 161.96 151.21 165.25 C 149.38 166.41 147.09 166.20 145.02 166.30 C 133.67 166.23 122.32 166.29 110.97 166.28 C 108.30 166.42 105.34 165.53 104.09 162.97 C 102.43 159.39 103.07 153.92 107.19 152.33 Z" />
</g>
<g id="#cfc1abff">
<path fill="#cfc1ab" opacity="1.00" d=" M 89.67 67.00 C 91.82 66.99 93.97 67.00 96.12 67.01 C 96.36 67.78 96.85 69.34 97.09 70.12 C 95.16 70.14 93.19 69.90 91.28 70.32 C 91.06 70.62 90.61 71.23 90.38 71.53 C 90.04 70.04 89.87 68.51 89.67 67.00 Z" />
<path fill="#cfc1ab" opacity="1.00" d=" M 108.28 67.00 C 110.78 67.00 113.27 67.02 115.77 67.02 C 115.36 68.64 114.98 70.27 114.40 71.84 C 114.27 71.51 114.01 70.85 113.88 70.52 C 111.80 69.65 109.46 70.27 107.29 70.18 C 107.54 69.38 108.04 67.79 108.28 67.00 Z" />
<path fill="#cfc1ab" opacity="1.00" d=" M 136.60 67.00 C 138.99 67.00 141.38 67.00 143.77 67.00 C 144.01 67.75 144.47 69.24 144.71 69.98 C 142.55 70.14 140.18 69.46 138.18 70.53 C 138.03 70.83 137.72 71.41 137.57 71.71 C 136.99 70.20 136.88 68.57 136.60 67.00 Z" />
<path fill="#cfc1ab" opacity="1.00" d=" M 155.94 67.01 C 158.23 67.01 160.51 67.01 162.80 67.02 C 162.39 68.59 162.02 70.18 161.50 71.73 C 161.31 71.38 160.91 70.69 160.72 70.34 C 158.91 69.64 156.93 70.10 155.05 70.03 C 155.27 69.28 155.72 67.77 155.94 67.01 Z" />
</g>
<g id="#000000ff">
<path fill="#000000" opacity="1.00" d=" M 96.12 67.01 C 100.17 67.01 104.23 66.99 108.28 67.00 C 108.04 67.79 107.54 69.38 107.29 70.18 C 104.89 73.75 99.42 73.81 97.09 70.12 C 96.85 69.34 96.36 67.78 96.12 67.01 Z" />
<path fill="#000000" opacity="1.00" d=" M 143.77 67.00 C 147.83 67.01 151.89 67.00 155.94 67.01 C 155.72 67.77 155.27 69.28 155.05 70.03 C 152.74 73.84 146.97 73.81 144.71 69.98 C 144.47 69.24 144.01 67.75 143.77 67.00 Z" />
</g>
<g id="#ffffffff">
<path fill="#ffffff" opacity="1.00" d=" M 91.28 70.32 C 93.19 69.90 95.16 70.14 97.09 70.12 C 99.42 73.81 104.89 73.75 107.29 70.18 C 109.46 70.27 111.80 69.65 113.88 70.52 C 114.01 70.85 114.27 71.51 114.40 71.84 C 112.86 76.20 108.73 79.56 104.09 79.92 C 98.26 80.69 92.49 76.93 90.38 71.53 C 90.61 71.23 91.06 70.62 91.28 70.32 Z" />
<path fill="#ffffff" opacity="1.00" d=" M 138.18 70.53 C 140.18 69.46 142.55 70.14 144.71 69.98 C 146.97 73.81 152.74 73.84 155.05 70.03 C 156.93 70.10 158.91 69.64 160.72 70.34 C 160.91 70.69 161.31 71.38 161.50 71.73 C 160.03 75.79 156.46 79.17 152.10 79.81 C 146.15 80.92 139.72 77.39 137.57 71.71 C 137.72 71.41 138.03 70.83 138.18 70.53 Z" />
</g>
<g id="#7086a3ff">
<path fill="#7086a3" opacity="1.00" d=" M 82.05 73.60 C 83.61 73.61 85.17 73.63 86.73 73.66 C 88.29 75.92 89.77 78.31 91.88 80.12 C 97.42 84.85 106.16 85.32 112.13 81.11 C 114.82 79.21 116.55 76.32 118.36 73.64 C 123.47 73.49 128.58 73.49 133.69 73.63 C 135.15 75.69 136.54 77.84 138.38 79.59 C 143.87 84.73 152.99 85.51 159.17 81.16 C 161.88 79.25 163.58 76.32 165.41 73.63 C 167.72 73.58 170.03 73.53 172.35 73.49 C 175.85 86.02 179.24 98.61 184.04 110.73 C 146.21 110.73 108.38 110.73 70.55 110.73 C 75.16 98.61 78.80 86.14 82.05 73.60 M 116.80 82.20 C 118.03 85.07 119.38 88.23 122.35 89.72 C 127.66 92.88 135.83 89.30 136.25 82.89 C 135.88 80.44 132.96 80.26 131.03 79.84 C 126.24 79.37 120.72 78.80 116.80 82.20 M 98.22 90.45 C 98.23 91.10 98.27 92.40 98.28 93.05 C 103.91 92.11 109.25 90.06 114.67 88.34 C 114.50 87.44 114.33 86.54 114.16 85.65 C 108.77 86.99 103.48 88.69 98.22 90.45 M 141.09 88.82 C 145.89 90.61 150.84 92.01 155.84 93.12 C 155.85 92.42 155.86 91.04 155.87 90.35 C 150.91 89.00 146.14 86.84 141.04 86.07 C 138.57 85.42 139.38 88.65 141.09 88.82 M 114.34 91.32 C 110.08 93.25 106.07 95.69 101.95 97.90 C 100.42 98.17 98.70 101.12 101.12 101.33 C 105.25 100.03 108.80 97.43 112.67 95.56 C 114.42 94.49 116.97 93.68 117.01 91.23 C 116.34 91.25 115.01 91.30 114.34 91.32 M 137.96 90.72 C 137.78 91.11 137.42 91.91 137.23 92.30 C 140.39 95.86 145.37 97.19 149.31 99.76 C 150.92 100.72 155.55 102.82 153.97 99.09 C 148.88 95.92 143.63 92.74 137.96 90.72 Z" />
</g>
<g id="#855a31ff">
<path fill="#855a31" opacity="1.00" d=" M 7.56 79.51 C 11.12 77.48 15.67 78.73 18.36 81.62 C 28.10 91.28 37.77 101.01 47.46 110.72 C 52.99 110.74 58.51 110.73 64.03 110.73 C 66.20 110.73 68.38 110.73 70.55 110.73 C 108.38 110.73 146.21 110.73 184.04 110.73 C 186.18 110.73 188.33 110.72 190.49 110.73 C 196.48 110.73 202.47 110.74 208.46 110.72 C 217.63 101.47 226.90 92.31 236.05 83.04 C 238.21 80.89 240.71 78.54 243.97 78.53 C 248.57 78.32 252.10 82.02 254.54 85.49 C 256.93 89.07 255.83 93.95 252.76 96.75 C 243.61 105.96 234.34 115.06 225.22 124.30 C 223.80 125.44 223.95 127.34 223.89 128.96 C 223.96 163.24 223.86 197.53 223.95 231.81 C 223.88 235.90 224.37 240.38 222.02 243.99 C 219.76 247.72 215.41 249.81 211.09 249.64 C 156.05 249.63 101.00 249.65 45.96 249.63 C 41.66 249.72 37.36 247.50 35.21 243.73 C 33.07 240.20 33.48 235.91 33.41 231.96 C 33.49 196.99 33.42 162.02 33.45 127.05 C 23.54 117.13 13.64 107.21 3.69 97.33 C 1.83 95.57 0.51 93.29 0.00 90.76 L 0.00 89.45 C 0.69 85.12 3.96 81.73 7.56 79.51 M 9.75 84.78 C 8.36 86.68 5.40 88.21 6.10 90.94 C 6.83 92.15 7.82 93.17 8.79 94.18 C 18.37 103.62 27.83 113.18 37.37 122.66 C 39.93 124.69 39.31 128.12 39.39 131.00 C 39.25 165.66 39.43 200.32 39.30 234.97 C 39.36 237.35 39.24 240.13 41.12 241.93 C 42.84 243.88 45.63 243.77 48.00 243.86 C 102.36 243.76 156.72 243.88 211.08 243.80 C 214.93 244.19 218.38 240.90 218.03 237.01 C 218.19 199.06 218.00 161.10 218.12 123.14 C 227.94 113.26 237.80 103.42 247.68 93.60 C 248.77 92.35 250.44 91.01 249.84 89.13 C 248.63 86.48 246.02 84.98 243.45 83.90 L 243.59 84.33 C 240.10 85.64 237.75 88.61 235.15 91.13 C 227.03 99.09 218.88 107.02 210.77 114.99 C 155.48 115.02 100.18 114.98 44.88 115.01 C 35.77 106.15 26.69 97.26 17.64 88.34 C 15.43 86.26 13.20 82.87 9.75 84.78 Z" />
</g>
<g id="#e7c898ff">
<path fill="#e7c898" opacity="1.00" d=" M 9.75 84.78 C 13.20 82.87 15.43 86.26 17.64 88.34 C 26.69 97.26 35.77 106.15 44.88 115.01 C 100.18 114.98 155.48 115.02 210.77 114.99 C 218.88 107.02 227.03 99.09 235.15 91.13 C 237.75 88.61 240.10 85.64 243.59 84.33 C 243.85 85.07 244.35 86.54 244.60 87.27 C 235.54 96.68 225.90 105.51 216.75 114.83 C 215.25 116.23 213.85 117.87 211.93 118.70 C 207.67 119.41 203.32 118.92 199.02 119.00 C 148.35 119.02 97.68 118.95 47.00 119.04 C 44.84 119.12 42.60 118.68 41.11 116.98 C 32.99 109.08 24.98 101.05 16.78 93.22 C 14.04 90.76 11.50 88.04 9.75 84.78 Z" />
<path fill="#e7c898" opacity="1.00" d=" M 105.41 148.58 C 118.25 147.83 131.16 148.53 144.03 148.24 C 147.91 148.39 152.46 147.56 155.62 150.40 C 159.12 153.51 158.53 158.74 158.22 162.94 C 157.94 167.04 154.07 170.27 150.02 170.11 C 136.02 170.26 122.02 170.17 108.03 170.16 C 103.42 170.55 99.00 166.81 99.05 162.11 C 98.27 156.95 99.20 149.70 105.41 148.58 M 107.19 152.33 C 103.07 153.92 102.43 159.39 104.09 162.97 C 105.34 165.53 108.30 166.42 110.97 166.28 C 122.32 166.29 133.67 166.23 145.02 166.30 C 147.09 166.20 149.38 166.41 151.21 165.25 C 156.28 161.96 154.67 151.83 147.99 151.91 C 137.01 151.65 126.01 151.94 115.03 151.79 C 112.42 151.85 109.72 151.57 107.19 152.33 Z" />
</g>
<g id="#af8e5aff">
<path fill="#af8e5a" opacity="1.00" d=" M 243.45 83.90 C 246.02 84.98 248.63 86.48 249.84 89.13 C 250.44 91.01 248.77 92.35 247.68 93.60 C 237.80 103.42 227.94 113.26 218.12 123.14 C 218.00 161.10 218.19 199.06 218.03 237.01 C 218.38 240.90 214.93 244.19 211.08 243.80 C 156.72 243.88 102.36 243.76 48.00 243.86 C 45.63 243.77 42.84 243.88 41.12 241.93 C 39.24 240.13 39.36 237.35 39.30 234.97 C 39.43 200.32 39.25 165.66 39.39 131.00 C 39.31 128.12 39.93 124.69 37.37 122.66 C 27.83 113.18 18.37 103.62 8.79 94.18 C 7.82 93.17 6.83 92.15 6.10 90.94 C 5.40 88.21 8.36 86.68 9.75 84.78 C 11.50 88.04 14.04 90.76 16.78 93.22 C 24.98 101.05 32.99 109.08 41.11 116.98 C 42.60 118.68 44.84 119.12 47.00 119.04 C 97.68 118.95 148.35 119.02 199.02 119.00 C 203.32 118.92 207.67 119.41 211.93 118.70 C 213.85 117.87 215.25 116.23 216.75 114.83 C 225.90 105.51 235.54 96.68 244.60 87.27 C 244.35 86.54 243.85 85.07 243.59 84.33 L 243.45 83.90 M 105.41 148.58 C 99.20 149.70 98.27 156.95 99.05 162.11 C 99.00 166.81 103.42 170.55 108.03 170.16 C 122.02 170.17 136.02 170.26 150.02 170.11 C 154.07 170.27 157.94 167.04 158.22 162.94 C 158.53 158.74 159.12 153.51 155.62 150.40 C 152.46 147.56 147.91 148.39 144.03 148.24 C 131.16 148.53 118.25 147.83 105.41 148.58 Z" />
</g>
<g id="#0000004c">
<path fill="#000000" opacity="0.30" d=" M 8.48 240.42 C 15.47 234.59 24.84 233.72 33.41 231.96 C 33.48 235.91 33.07 240.20 35.21 243.73 C 37.36 247.50 41.66 249.72 45.96 249.63 C 101.00 249.65 156.05 249.63 211.09 249.64 C 215.41 249.81 219.76 247.72 222.02 243.99 C 224.37 240.38 223.88 235.90 223.95 231.81 C 232.87 233.79 243.27 234.04 250.03 241.02 C 244.77 246.43 237.02 247.51 230.00 249.02 C 200.79 254.33 171.02 254.92 141.43 256.00 L 116.57 256.00 C 87.87 254.96 59.01 254.30 30.63 249.44 C 22.98 247.57 13.56 247.33 8.48 240.42 Z" />
</g>
</svg>
